<?xml version="1.0" standalone="no"?>
<!DOCTYPE svg PUBLIC "-//W3C//DTD SVG 20010904//EN"
 "http://www.w3.org/TR/2001/REC-SVG-20010904/DTD/svg10.dtd">
<svg version="1.0" xmlns="http://www.w3.org/2000/svg"
 width="4407.000000pt" height="742.000000pt" viewBox="0 0 4407.000000 742.000000"
 preserveAspectRatio="xMidYMid meet">

<g transform="translate(0.000000,742.000000) scale(0.100000,-0.100000)"
fill="#000000" stroke="none">
<path d="M312 7404 c-144 -38 -260 -156 -297 -301 -13 -52 -15 -456 -13 -3419
3 -3147 4 -3362 20 -3402 46 -114 140 -210 250 -255 l53 -22 21685 -3 c19229
-2 21691 0 21743 13 147 38 264 155 302 302 13 52 15 456 13 3419 -3 3147 -4
3362 -20 3402 -46 114 -140 210 -250 255 l-53 22 -21690 2 c-18788 1 -21697 0
-21743 -13z m10046 -1830 c28 -20 30 -69 3 -84 -32 -17 -60 -12 -77 15 -19 29
-11 63 19 75 30 12 30 12 55 -6z m1640 -7 c17 -13 15 -52 -4 -71 -21 -22 -57
-20 -78 3 -47 52 25 112 82 68z m14060 -5 c16 -21 15 -33 -4 -60 -17 -24 -51
-29 -76 -9 -30 22 -27 74 5 87 27 11 58 3 75 -18z m4030 5 c31 -24 -1 -87 -44
-87 -53 0 -73 73 -25 96 24 12 45 9 69 -9z m-22488 -59 c0 -40 -3 -97 -6 -125
-6 -50 -9 -53 -34 -53 -34 0 -36 8 -46 148 l-7 102 47 0 46 0 0 -72z m175 -45
c-4 -65 -9 -121 -12 -125 -2 -5 -17 -8 -32 -8 -27 0 -28 2 -34 68 -4 37 -7 93
-7 125 l0 57 46 0 46 0 -7 -117z m466 -165 l194 -281 3 281 2 282 45 0 45 0 0
-360 0 -360 -49 0 -50 0 -193 278 -193 278 -3 -278 -2 -278 -50 0 -50 0 0 360
0 360 53 0 53 0 195 -282z m1529 146 l0 -136 34 30 c45 40 96 55 163 50 64 -6
100 -29 128 -84 17 -34 20 -64 23 -241 l4 -203 -51 0 -51 0 0 200 0 201 -26
26 c-23 23 -31 25 -85 21 -47 -3 -66 -10 -96 -35 l-38 -30 -3 -192 -2 -191
-45 0 -45 0 0 360 0 360 45 0 45 0 0 -136z m7090 -162 c0 -331 1 -336 65 -348
32 -6 35 -9 35 -40 0 -33 -1 -34 -42 -34 -58 0 -109 27 -130 70 -16 31 -18 70
-18 343 l0 307 45 0 45 0 0 -298z m290 -3 c0 -183 4 -308 10 -319 6 -11 26
-22 45 -26 32 -6 35 -9 35 -41 l0 -35 -56 4 c-46 4 -61 10 -87 37 l-32 31 -7
163 c-3 89 -7 235 -7 325 l-1 162 50 0 50 0 0 -301z m1690 86 c0 -118 4 -215
8 -215 5 0 57 51 115 114 103 110 109 114 158 121 27 4 53 4 56 1 3 -3 -47
-60 -111 -127 l-117 -121 126 -133 c69 -73 125 -136 125 -139 0 -3 -24 -6 -54
-6 l-53 0 -119 129 c-66 71 -122 130 -126 130 -5 1 -8 -57 -8 -129 l0 -130
-45 0 -45 0 0 360 0 360 45 0 45 0 0 -215z m4550 -145 l0 -360 -45 0 -45 0 0
37 0 37 -27 -27 c-76 -72 -205 -76 -276 -10 -59 57 -72 96 -72 223 0 124 9
155 64 213 70 75 212 77 286 3 l25 -25 0 134 0 135 45 0 45 0 0 -360z m2060
224 l0 -136 33 28 c45 38 88 54 147 54 85 0 141 -42 159 -120 6 -25 11 -127
11 -227 l0 -183 -45 0 -45 0 -1 158 c-1 193 -5 230 -28 262 -16 22 -26 25 -83
25 -57 0 -68 -3 -106 -33 l-42 -34 0 -189 0 -189 -45 0 -45 0 0 360 0 360 45
0 45 0 0 -136z m4020 0 l0 -136 33 28 c97 82 240 70 304 -25 33 -48 46 -104
45 -197 0 -174 -91 -274 -239 -262 -39 4 -66 13 -98 36 l-45 32 0 -30 c0 -29
-2 -30 -45 -30 l-45 0 0 360 0 360 45 0 45 0 0 -136z m6625 -56 c-4 -106 -10
-218 -14 -248 -5 -50 -8 -55 -32 -58 -35 -4 -37 8 -45 281 l-7 217 53 0 53 0
-8 -192z m270 75 c-4 -65 -9 -121 -12 -125 -2 -5 -17 -8 -32 -8 -27 0 -29 3
-35 53 -3 28 -6 85 -6 125 l0 72 46 0 46 0 -7 -117z m175 45 c0 -40 -3 -97 -6
-125 -6 -50 -9 -53 -34 -53 -32 0 -35 9 -46 158 l-7 92 47 0 46 0 0 -72z
m-27110 -68 l0 -60 65 0 65 0 0 -35 0 -35 -65 0 -65 0 0 -160 c0 -95 4 -169
11 -184 11 -24 43 -36 95 -36 21 0 24 -5 24 -36 l0 -36 -70 4 c-81 4 -118 26
-137 79 -7 21 -12 99 -12 202 l-1 167 -45 0 c-45 0 -45 0 -45 35 0 35 0 35 45
35 l45 0 0 60 0 60 45 0 45 0 0 -60z m3610 0 l0 -60 65 0 65 0 0 -35 0 -35
-66 0 -65 0 3 -175 c2 -117 7 -178 15 -186 6 -6 35 -14 62 -17 50 -4 51 -5 51
-38 l0 -34 -57 0 c-73 0 -122 24 -145 70 -15 29 -18 63 -18 208 l0 172 -45 0
c-45 0 -45 0 -45 35 0 35 0 35 45 35 l45 0 0 60 0 60 45 0 45 0 0 -60z m4640
0 l0 -60 65 0 65 0 0 -35 0 -35 -65 0 -65 0 0 -165 c0 -163 0 -166 25 -190 18
-18 35 -25 65 -25 39 0 40 -1 40 -36 l0 -36 -70 4 c-81 4 -118 26 -137 79 -7
21 -12 99 -12 202 l-1 167 -45 0 c-45 0 -45 0 -45 35 0 35 0 35 45 35 l45 0 0
60 0 60 45 0 45 0 0 -60z m7432 3 l3 -58 63 -3 62 -3 0 -34 0 -35 -66 0 -65 0
3 -170 c3 -193 6 -199 82 -207 45 -5 46 -7 46 -39 l0 -34 -55 0 c-81 0 -122
20 -145 72 -17 37 -20 66 -20 211 l0 167 -45 0 c-45 0 -45 0 -45 35 0 35 0 35
45 35 l45 0 0 60 0 60 45 0 44 0 3 -57z m2588 -3 l0 -60 65 0 65 0 0 -35 0
-35 -66 0 -65 0 3 -170 c3 -193 6 -199 82 -207 45 -5 46 -7 46 -39 l0 -34 -55
0 c-69 0 -115 18 -140 56 -18 26 -20 50 -23 212 l-4 182 -44 0 c-44 0 -44 0
-44 35 0 35 0 35 45 35 l45 0 0 60 0 60 45 0 45 0 0 -60z m3430 0 l0 -60 65 0
65 0 0 -35 0 -35 -65 0 -65 0 0 -168 c0 -197 2 -202 78 -210 51 -4 52 -5 52
-38 l0 -34 -57 0 c-73 0 -122 24 -145 70 -15 29 -18 63 -18 208 l0 172 -45 0
c-45 0 -45 0 -45 34 0 34 1 35 43 38 l42 3 3 58 3 57 44 0 45 0 0 -60z m1752
3 l3 -58 63 -3 62 -3 0 -34 0 -35 -66 0 -66 0 3 -170 c4 -193 7 -199 83 -207
45 -5 46 -7 46 -39 l0 -34 -56 0 c-31 0 -71 7 -90 16 -60 29 -68 57 -72 257
l-4 177 -44 0 c-44 0 -44 0 -44 35 0 35 0 35 45 35 l45 0 0 60 0 60 45 0 44 0
3 -57z m358 -3 l0 -60 65 0 65 0 0 -35 0 -35 -66 0 -65 0 3 -175 c2 -107 7
-178 14 -185 6 -6 34 -13 62 -17 51 -6 52 -6 52 -39 l0 -34 -57 0 c-73 0 -122
24 -145 70 -15 29 -18 63 -18 208 l0 172 -45 0 c-45 0 -45 0 -45 34 0 34 1 35
43 38 l42 3 3 58 3 57 44 0 45 0 0 -60z m2490 0 l0 -60 60 0 60 0 0 -35 0 -35
-60 0 -60 0 0 -168 c0 -197 2 -202 78 -210 52 -5 52 -5 52 -39 l0 -35 -72 4
c-83 4 -120 24 -138 73 -7 17 -14 108 -17 203 l-6 172 -38 0 c-38 0 -39 1 -39
35 0 34 1 35 40 35 l40 0 0 60 0 60 50 0 50 0 0 -60z m-24140 -30 c0 -39 -1
-40 -36 -40 -19 0 -44 -5 -55 -10 -19 -11 -19 -12 6 -54 18 -31 25 -57 25 -95
0 -69 -23 -116 -73 -149 -36 -24 -50 -27 -135 -28 -81 -1 -97 -4 -109 -20 -12
-17 -11 -21 6 -35 15 -12 50 -17 134 -21 139 -6 195 -28 222 -85 33 -68 4
-138 -76 -183 -36 -20 -61 -25 -141 -28 -165 -7 -248 38 -248 135 0 38 5 50
34 79 l35 35 -25 24 c-33 33 -31 70 6 107 27 27 29 32 17 47 -49 56 -60 136
-27 201 38 75 132 112 231 93 50 -10 54 -10 73 14 23 30 69 52 109 53 25 0 27
-3 27 -40z m15680 0 c0 -39 -1 -40 -36 -40 -19 0 -44 -5 -55 -11 -19 -10 -19
-10 0 -37 30 -43 43 -104 32 -153 -13 -57 -38 -89 -92 -117 -37 -19 -57 -22
-124 -20 -86 3 -105 -3 -105 -32 0 -29 16 -34 141 -41 83 -5 128 -12 161 -27
110 -48 103 -178 -12 -242 -41 -23 -56 -25 -160 -25 -93 0 -122 4 -154 19 -47
24 -76 69 -76 120 0 31 7 45 35 72 l35 33 -25 25 c-14 14 -25 36 -25 49 0 24
41 77 59 77 6 0 -4 21 -22 46 -27 39 -32 54 -32 103 1 70 27 117 84 149 49 28
123 38 175 24 36 -10 40 -9 59 15 24 29 70 52 110 53 25 0 27 -3 27 -40z
m3428 3 c-3 -36 -5 -38 -46 -44 -60 -8 -69 -20 -41 -58 30 -41 38 -135 15
-179 -39 -75 -112 -109 -216 -99 -50 4 -64 2 -83 -14 l-22 -19 22 -19 c17 -15
44 -19 136 -23 122 -6 189 -26 214 -66 43 -70 10 -161 -72 -202 -40 -20 -69
-26 -141 -28 -104 -4 -161 8 -203 44 -61 51 -60 132 4 182 l28 22 -27 21 c-37
29 -35 72 5 111 l30 31 -20 21 c-64 68 -52 194 24 252 45 34 130 51 189 37 43
-9 48 -9 61 11 21 29 74 55 113 56 32 0 33 -1 30 -37z m-21677 -34 c100 -34
154 -124 154 -254 0 -99 -16 -146 -68 -202 -88 -96 -266 -97 -351 -2 -42 46
-54 72 -67 149 -20 123 31 250 120 297 50 26 152 32 212 12z m1890 -12 c65
-43 74 -77 77 -304 l4 -203 -49 0 -48 0 0 194 c0 183 -1 196 -21 223 -20 26
-27 28 -86 28 -57 0 -68 -3 -106 -33 l-42 -34 0 -189 0 -189 -45 0 -45 0 0
260 0 260 45 0 45 0 0 -37 0 -37 28 27 c63 60 180 77 243 34z m1561 -1 c41
-20 72 -63 81 -113 l7 -33 -44 0 c-41 0 -45 2 -51 30 -10 45 -48 70 -109 70
-69 0 -100 -17 -104 -56 -4 -43 16 -60 101 -85 150 -43 190 -68 208 -128 34
-113 -55 -201 -203 -201 -97 0 -169 38 -199 104 -30 66 -26 76 26 76 33 0 45
-4 45 -15 0 -75 111 -120 204 -81 25 11 36 22 41 46 12 56 -15 78 -144 120
-140 45 -171 72 -171 149 0 59 25 95 84 123 53 24 173 21 228 -6z m1134 5 c51
-23 107 -88 123 -143 7 -23 13 -74 13 -114 -1 -154 -81 -249 -222 -261 -147
-14 -253 80 -267 234 -12 127 37 235 127 281 57 29 166 30 226 3z m602 3 c88
-36 133 -111 140 -230 6 -104 -15 -171 -69 -225 -48 -48 -129 -74 -204 -66
-146 15 -224 125 -213 301 7 108 55 184 138 220 46 20 160 20 208 0z m798 -3
c48 -22 83 -66 91 -116 l6 -35 -47 0 c-39 0 -46 3 -46 19 0 53 -41 81 -118 81
-55 0 -102 -28 -102 -60 0 -37 34 -61 125 -86 161 -46 202 -85 193 -183 -4
-36 -12 -59 -29 -77 -44 -47 -77 -58 -174 -59 -80 0 -95 3 -136 27 -49 29 -79
76 -79 122 0 24 3 26 45 26 39 0 45 -3 45 -21 0 -76 127 -118 208 -69 27 17
32 25 32 60 0 50 -17 62 -136 96 -116 33 -159 62 -175 114 -14 47 -1 106 30
134 52 47 192 61 267 27z m588 5 c18 -7 42 -26 53 -42 l21 -28 56 39 c49 33
66 40 119 43 82 4 124 -17 155 -78 21 -42 22 -57 22 -247 l0 -203 -45 0 -45 0
0 185 c0 208 -9 249 -55 261 -50 12 -112 -2 -154 -36 l-41 -32 0 -189 0 -189
-45 0 -45 0 0 190 c0 242 -7 260 -100 260 -52 0 -81 -12 -118 -50 l-32 -32 0
-184 0 -184 -45 0 -45 0 0 260 0 260 45 0 c45 0 45 0 45 -36 l0 -36 33 28 c17
15 46 33 62 40 40 17 117 17 159 0z m926 -8 c33 -17 51 -35 68 -68 21 -41 22
-57 22 -242 l0 -198 -45 0 c-45 0 -45 0 -45 35 l0 34 -45 -30 c-25 -17 -60
-35 -77 -40 -156 -44 -286 80 -220 211 30 61 140 100 278 100 l64 0 0 30 c0
42 -24 96 -48 109 -12 6 -45 11 -76 11 -44 0 -60 -5 -85 -25 -16 -15 -31 -38
-33 -53 -3 -24 -7 -27 -49 -30 l-46 -3 7 38 c18 100 81 142 215 143 54 0 81
-5 115 -22z m1756 -13 c69 -43 105 -115 107 -216 2 -91 -15 -155 -55 -203 -77
-93 -231 -112 -340 -41 -77 51 -115 193 -84 315 20 77 56 125 117 158 38 20
55 23 125 20 69 -3 88 -7 130 -33z m1381 9 c54 -39 61 -71 69 -296 l7 -208
-51 0 -51 0 -3 206 c-3 206 -3 206 -28 226 -38 31 -127 22 -177 -19 l-38 -30
-3 -192 -2 -191 -50 0 -50 0 0 260 0 260 45 0 c42 0 44 -1 50 -34 7 -34 7 -34
27 -14 59 59 195 76 255 32z m589 -9 c37 -23 56 -45 78 -89 27 -52 30 -68 30
-145 -1 -93 -15 -137 -60 -190 -81 -96 -264 -106 -353 -19 -54 53 -75 109 -75
208 0 70 4 95 26 141 44 96 104 130 224 126 70 -2 87 -6 130 -32z m928 -23
c-7 -26 -44 -141 -82 -257 l-68 -210 -49 -3 -50 -3 -60 201 c-33 110 -62 200
-66 200 -3 0 -33 -89 -65 -197 l-60 -198 -50 -3 -50 -3 -79 248 c-43 136 -80
254 -83 261 -3 8 10 12 44 12 l49 0 60 -205 60 -206 32 103 c17 57 46 149 63
206 l31 103 52 -3 52 -3 60 -197 c32 -108 62 -195 65 -192 3 3 30 92 61 197
l56 192 39 5 c22 3 42 4 46 3 4 -2 0 -25 -8 -51z m923 32 c66 -50 68 -55 71
-290 l3 -214 -40 0 c-38 0 -40 2 -47 35 l-6 34 -32 -24 c-99 -76 -223 -74
-289 4 -23 27 -27 42 -27 91 0 52 4 64 31 95 39 44 102 64 227 72 l92 6 0 44
c0 36 -6 50 -29 74 -25 24 -37 29 -81 29 -79 0 -130 -35 -130 -89 0 -18 -6
-21 -46 -21 l-47 0 6 39 c7 55 34 88 92 117 44 22 60 25 138 21 68 -2 93 -8
114 -23z m603 3 c69 -46 75 -68 78 -299 l4 -208 -45 0 -45 0 -4 194 c-3 179
-5 197 -24 223 -18 24 -29 28 -76 31 -48 3 -61 -1 -104 -30 l-49 -33 -3 -192
-2 -193 -45 0 -45 0 0 260 0 260 45 0 c45 0 45 0 45 -36 l0 -36 33 28 c47 39
85 53 148 54 42 0 64 -6 89 -23z m1450 0 c69 -46 75 -68 78 -299 l4 -208 -45
0 -45 0 -4 194 c-3 179 -5 197 -24 223 -18 24 -29 28 -76 31 -48 3 -61 -1
-104 -30 l-49 -33 -3 -192 -2 -193 -45 0 -45 0 0 260 0 260 45 0 c45 0 45 0
45 -36 l0 -36 33 28 c47 39 85 53 148 54 42 0 64 -6 89 -23z m577 2 c91 -44
139 -144 131 -274 -11 -162 -123 -260 -278 -242 -133 16 -200 97 -208 248 -7
138 30 218 121 264 67 33 170 35 234 4z m1878 -9 c56 -52 60 -69 63 -292 l4
-208 -45 0 -45 0 -4 194 c-3 179 -5 197 -24 223 -18 24 -29 28 -76 31 -48 3
-61 -1 -104 -30 l-49 -33 -3 -192 -2 -193 -45 0 -45 0 0 260 0 260 45 0 c45 0
45 0 45 -36 l0 -36 33 28 c52 44 86 55 159 51 55 -2 72 -7 93 -27z m1691 -5
c37 -23 56 -45 78 -89 27 -52 30 -68 30 -145 -1 -94 -13 -135 -59 -189 -76
-91 -233 -107 -337 -35 -24 16 -48 46 -65 81 -23 48 -27 69 -27 141 0 71 4 96
26 142 44 96 104 130 224 126 70 -2 87 -6 130 -32z m579 16 c90 -41 128 -108
133 -234 6 -133 -31 -211 -122 -260 -32 -17 -58 -22 -122 -22 -73 0 -86 3
-130 30 -35 22 -57 46 -79 85 -27 49 -30 64 -30 145 0 51 6 107 14 128 18 52
67 106 116 128 54 25 166 25 220 0z m2813 3 c92 -38 142 -126 141 -249 0 -125
-39 -204 -122 -247 -61 -32 -185 -32 -244 0 -78 41 -123 129 -123 242 0 118
51 213 135 251 51 23 161 25 213 3z m842 -6 c78 -40 84 -61 88 -300 l4 -208
-46 0 c-44 0 -45 1 -48 35 l-3 36 -40 -29 c-79 -57 -161 -67 -235 -29 -104 52
-107 197 -6 254 47 25 138 43 224 43 l62 0 0 30 c0 42 -24 96 -48 109 -12 6
-45 11 -76 11 -44 0 -60 -5 -84 -25 -17 -14 -33 -39 -37 -55 -6 -28 -10 -30
-51 -30 l-43 0 6 33 c19 102 84 146 218 147 54 0 81 -5 115 -22z m1243 11 c81
-22 131 -101 141 -221 l5 -48 -191 0 -190 0 7 -42 c9 -57 34 -98 75 -125 67
-46 175 -19 196 47 11 33 15 35 58 38 47 3 47 3 40 -25 -17 -71 -63 -119 -138
-143 -79 -25 -211 4 -257 56 -47 53 -63 107 -64 204 0 84 3 102 28 151 27 55
76 100 123 112 36 9 129 7 167 -4z m377 -36 l0 -37 28 27 c80 77 233 76 280
-2 19 -31 19 -31 37 -11 32 36 115 70 169 70 68 0 115 -25 140 -75 19 -36 21
-61 24 -247 l3 -208 -45 0 -46 0 0 174 c0 95 -3 187 -6 204 -11 52 -37 72 -99
72 -45 0 -60 -5 -97 -33 l-43 -33 -3 -192 -2 -192 -45 0 -45 0 0 174 c0 95 -3
187 -6 204 -11 52 -37 72 -99 72 -45 0 -60 -5 -97 -33 l-43 -33 -3 -192 -2
-192 -45 0 -45 0 0 259 0 260 38 3 c50 4 52 3 52 -39z m1227 15 c59 -39 86
-101 91 -209 6 -112 -14 -184 -66 -238 -67 -71 -185 -81 -268 -23 l-44 32 0
-125 0 -125 -45 0 -45 0 0 355 0 355 45 0 45 0 0 -37 0 -37 28 26 c50 47 82
59 153 55 52 -2 75 -8 106 -29z m-24997 -238 l0 -260 -50 0 -50 0 0 260 0 260
50 0 50 0 0 -260z m1620 0 l0 -260 -45 0 -45 0 0 260 0 260 45 0 45 0 0 -260z
m14060 0 l0 -260 -50 0 -50 0 0 260 0 260 50 0 50 0 0 -260z m4030 0 l0 -260
-45 0 -45 0 0 260 0 260 45 0 45 0 0 -260z m-8754 -151 c23 -26 24 -111 1
-155 -17 -33 -61 -76 -94 -93 -19 -9 -24 -8 -33 8 -15 29 -13 36 16 51 14 8
32 27 40 42 17 33 17 38 2 38 -22 0 -48 33 -48 62 0 60 76 91 116 47z m14756
4 c35 -42 27 -91 -18 -112 -42 -19 -94 14 -94 60 0 56 78 92 112 52z m-15958
-934 c28 -22 33 -53 15 -92 -18 -39 -83 -66 -98 -40 -7 13 -3 22 15 36 32 25
30 46 -6 60 -21 8 -30 18 -30 34 0 20 5 23 39 23 24 0 48 -8 65 -21z m13086 3
c16 -13 22 -29 22 -55 0 -44 -15 -65 -61 -84 -28 -12 -35 -12 -42 -1 -13 20
-11 26 11 38 12 6 20 21 20 36 0 19 -6 26 -30 31 -23 4 -30 11 -30 29 0 22 4
24 44 24 27 0 52 -7 66 -18z m-11327 -25 c-82 -103 -107 -127 -135 -127 -15 0
-28 3 -28 7 0 4 18 37 40 75 l41 68 50 0 50 0 -18 -23z m-3338 -51 c22 -15 26
-23 23 -59 -2 -35 -9 -45 -35 -62 -18 -11 -32 -28 -33 -37 0 -13 -8 -18 -30
-18 -26 0 -30 4 -30 26 0 16 11 37 26 51 32 29 28 57 -9 61 -23 3 -27 8 -27
34 0 30 0 31 45 26 25 -3 56 -13 70 -22z m16308 -4 c28 -28 26 -76 -3 -107
-13 -14 -29 -25 -37 -25 -7 0 -13 -9 -13 -20 0 -16 -7 -20 -30 -20 -26 0 -30
3 -30 29 0 20 8 34 26 45 34 23 30 60 -8 64 -24 3 -28 8 -28 34 l0 31 51 -5
c33 -4 58 -12 72 -26z m-25008 -81 c30 -37 55 -71 55 -75 0 -3 -14 -6 -32 -6
-25 0 -43 11 -80 47 l-48 47 -43 -47 c-37 -40 -49 -47 -81 -47 -42 0 -45 -7
34 93 43 55 46 57 92 57 46 0 48 -1 103 -69z m2534 -7 c-67 -67 -79 -75 -108
-72 l-32 3 53 72 53 72 55 1 55 0 -76 -76z m1099 9 l51 -68 -36 -3 c-33 -3
-42 2 -107 67 l-71 71 56 0 55 0 52 -67z m941 1 c28 -37 51 -71 51 -76 0 -12
-52 -4 -76 13 -10 7 -43 39 -73 71 l-54 58 50 0 c51 0 51 0 102 -66z m2135 -9
c-59 -56 -86 -74 -108 -75 -35 0 -32 9 30 89 l47 61 55 0 55 0 -79 -75z m3471
6 c30 -37 55 -71 55 -75 0 -3 -15 -6 -33 -6 -26 0 -42 10 -77 45 l-44 45 -46
-45 c-35 -35 -53 -45 -78 -45 -18 0 -32 4 -32 8 0 4 25 38 55 75 53 64 57 67
100 67 43 0 46 -2 100 -69z m1689 0 c31 -39 56 -72 56 -75 0 -4 -16 -6 -34 -6
-28 0 -43 9 -81 48 l-45 47 -43 -48 c-39 -44 -46 -48 -80 -45 l-38 3 57 73
c57 71 58 72 105 72 46 0 48 -1 103 -69z m2621 8 c74 -91 74 -91 25 -86 -35 3
-49 12 -80 48 l-38 44 -49 -47 c-38 -37 -56 -48 -81 -48 -18 0 -32 2 -32 6 0
3 25 36 56 75 55 67 57 69 103 69 44 0 48 -2 96 -61z m2544 -14 c-62 -61 -83
-75 -108 -75 -17 0 -31 3 -31 6 0 4 23 37 51 75 l51 69 56 0 57 0 -76 -75z
m1090 10 c28 -35 51 -67 51 -70 0 -3 -15 -5 -33 -5 -27 0 -44 12 -102 70 l-69
70 51 0 c51 0 51 0 102 -65z m1988 -10 c-61 -59 -85 -75 -108 -75 -16 0 -29 3
-29 6 0 4 23 37 51 75 l51 69 56 0 57 0 -78 -75z m1092 -1 c-67 -67 -79 -75
-108 -72 l-32 3 56 73 56 72 52 0 52 0 -76 -76z m2065 4 l58 -73 -33 -3 c-27
-3 -40 4 -81 45 l-49 48 -46 -48 c-39 -42 -50 -48 -80 -45 l-35 3 58 73 c56
71 58 72 104 72 46 0 48 -1 104 -72z m-25185 40 c7 -19 3 -26 -21 -40 -15 -10
-34 -29 -40 -43 -10 -22 -8 -27 15 -45 33 -26 41 -53 26 -82 -16 -30 -28 -38
-61 -38 -94 0 -88 159 8 238 46 38 62 40 73 10z m201 1 c7 -11 10 -22 8 -23
-2 -1 -14 -9 -28 -18 -14 -8 -31 -26 -38 -40 -13 -23 -11 -27 17 -56 36 -35
39 -64 11 -92 -29 -29 -74 -26 -99 6 -42 53 -15 154 55 212 45 37 59 40 74 11z
m665 9 c3 -3 -54 -72 -126 -154 -73 -82 -138 -156 -146 -166 -13 -15 2 -35
146 -205 l161 -188 -56 -3 c-32 -2 -62 2 -70 9 -7 6 -78 87 -156 180 l-143
170 -3 -181 -2 -180 -50 0 -50 0 0 360 0 360 50 0 50 0 2 -167 3 -167 143 166
c146 170 154 177 220 172 12 -1 25 -3 27 -6z m12430 -12 c36 -36 12 -86 -42
-86 -51 0 -67 81 -20 100 32 13 36 12 62 -14z m14527 9 c92 -32 143 -124 119
-215 -10 -35 -28 -60 -85 -115 -79 -76 -96 -101 -96 -139 0 -24 -3 -26 -45
-26 -40 0 -45 2 -45 23 0 61 22 99 101 176 76 75 79 79 79 124 0 60 -29 96
-88 107 -94 17 -182 -32 -182 -101 0 -28 -1 -29 -51 -29 l-51 0 7 37 c20 109
105 170 236 172 30 1 76 -6 101 -14z m-26742 -130 l0 -135 45 35 c51 38 95 50
162 42 53 -6 90 -30 118 -78 18 -30 20 -56 23 -241 l4 -208 -46 0 -46 0 -1
153 c0 264 -9 290 -101 295 -48 3 -61 -1 -104 -30 l-49 -33 -3 -192 -2 -193
-45 0 -45 0 0 360 0 360 45 0 45 0 0 -135z m5000 -163 c0 -331 1 -336 65 -348
32 -6 35 -9 35 -41 l0 -35 -55 4 c-66 6 -105 31 -122 79 -8 23 -12 129 -12
337 l-1 302 45 0 45 0 0 -298z m3750 162 l0 -137 26 26 c59 59 191 75 252 30
58 -42 66 -78 70 -300 l4 -203 -51 0 -51 0 0 200 0 201 -26 26 c-23 23 -31 25
-85 21 -47 -3 -66 -10 -96 -35 l-38 -30 -3 -192 -2 -191 -45 0 -45 0 0 360 0
360 45 0 45 0 0 -136z m1790 106 c0 -28 3 -30 35 -30 32 0 35 -2 35 -30 0 -28
-3 -30 -35 -30 l-35 0 0 -300 0 -300 -45 0 c-45 0 -45 0 -45 35 l0 35 -45 -35
c-105 -80 -251 -51 -305 60 -27 56 -39 145 -29 224 15 128 81 201 189 209 71
5 117 -9 158 -49 l32 -31 0 76 0 76 -60 0 -60 0 0 30 0 30 60 0 60 0 0 30 c0
29 2 30 45 30 43 0 45 -1 45 -30z m1070 -106 l0 -137 28 28 c37 38 82 55 142
55 65 0 108 -18 147 -64 92 -103 77 -362 -23 -433 -78 -55 -189 -56 -255 -4
-21 17 -40 31 -43 31 -3 0 -6 -13 -6 -30 0 -29 -2 -30 -45 -30 l-45 0 0 360 0
360 50 0 50 0 0 -136z m2350 -84 l0 -219 118 119 c115 118 118 120 170 126 28
3 52 2 52 -2 0 -5 -53 -61 -117 -126 l-117 -117 100 -106 c54 -59 112 -122
127 -141 l29 -34 -55 0 -55 0 -126 133 -125 132 -1 -132 0 -133 -45 0 -45 0 0
360 0 360 45 0 45 0 0 -220z m530 85 l0 -135 51 36 c43 32 60 37 117 41 87 6
128 -14 160 -77 21 -42 22 -57 22 -247 l0 -203 -45 0 -45 0 0 184 c0 245 -8
266 -105 266 -53 0 -77 -10 -122 -53 l-33 -31 0 -183 0 -183 -45 0 -45 0 0
360 0 360 45 0 45 0 0 -135z m7042 -168 c3 -333 3 -331 64 -343 31 -6 34 -9
34 -40 0 -33 -1 -34 -41 -34 -55 0 -106 26 -127 64 -15 27 -17 72 -20 344 l-4
312 46 0 45 0 3 -303z m2098 273 c0 -27 3 -30 30 -30 27 0 30 -3 30 -30 0 -27
-3 -30 -30 -30 l-30 0 0 -300 0 -300 -44 0 c-40 0 -44 2 -49 30 l-6 30 -51
-32 c-62 -39 -132 -48 -193 -24 -83 32 -125 100 -134 220 -15 198 74 314 233
304 53 -3 70 -9 104 -36 l40 -33 0 71 0 70 -60 0 -60 0 0 30 0 30 60 0 60 0 0
30 c0 29 1 30 50 30 49 0 50 -1 50 -30z m1420 -106 l0 -137 26 26 c59 59 191
75 252 30 57 -41 66 -78 70 -300 l5 -203 -52 0 -51 0 0 200 0 201 -26 26 c-23
23 -31 25 -85 21 -47 -3 -66 -10 -96 -35 l-38 -30 -3 -192 -2 -191 -50 0 -50
0 0 360 1 360 49 0 50 0 0 -136z m2020 79 c0 -32 -3 -88 -7 -125 l-6 -68 -32
0 -32 0 -7 77 c-3 42 -6 98 -6 125 l0 48 45 0 45 0 0 -57z m175 -25 c-11 -163
-13 -168 -44 -168 -26 0 -29 4 -35 46 -3 26 -6 82 -6 125 l0 79 45 0 45 0 -5
-82z m-4978 -10 c7 -6 15 -26 19 -44 9 -50 -19 -117 -67 -157 l-40 -33 12 -47
c29 -116 -14 -262 -91 -313 -73 -48 -188 -56 -262 -18 -86 43 -120 104 -126
225 -10 196 81 297 261 288 74 -4 86 -9 173 -74 9 -6 21 -2 39 15 32 30 32 43
-1 64 -21 14 -25 24 -22 54 5 55 60 76 105 40z m3883 -4 c10 -10 15 -32 14
-64 -1 -65 -38 -121 -104 -158 l-50 -27 0 -187 0 -188 -44 0 c-42 0 -44 1 -50
35 l-7 35 -37 -29 c-97 -76 -220 -66 -286 23 -19 25 -21 43 -24 244 l-3 217
45 1 45 0 3 -203 c3 -195 4 -203 26 -225 18 -18 33 -23 81 -23 50 0 67 5 103
31 l43 30 5 194 5 195 45 0 45 0 3 -42 c2 -24 7 -43 12 -43 12 0 70 56 70 68
0 5 -12 17 -26 26 -21 14 -25 24 -22 54 5 57 64 77 108 36z m-13060 -44 l0
-60 60 0 60 0 0 -35 0 -35 -59 0 -59 0 -4 -137 c-3 -144 2 -207 20 -225 6 -6
34 -13 61 -16 51 -5 51 -5 51 -39 l0 -35 -72 4 c-82 4 -120 23 -139 73 -6 17
-14 108 -16 203 l-6 172 -38 0 c-38 0 -39 1 -39 35 0 34 1 35 40 35 l40 0 0
60 0 60 50 0 50 0 0 -60z m11620 0 l0 -60 65 0 65 0 0 -35 0 -35 -65 0 -65 0
0 -165 c0 -163 0 -166 25 -190 18 -18 35 -25 65 -25 39 0 40 -1 40 -35 l0 -35
-57 0 c-73 0 -122 24 -145 70 -15 29 -18 63 -18 208 l0 172 -45 0 c-45 0 -45
0 -45 35 0 35 0 35 45 35 l45 0 0 60 0 60 45 0 45 0 0 -60z m-22550 -30 c0
-39 -1 -40 -35 -40 -19 0 -44 -5 -54 -12 -18 -11 -17 -12 5 -45 67 -99 29
-227 -81 -269 -33 -12 -63 -15 -110 -12 -67 6 -105 -8 -105 -37 0 -24 21 -29
146 -36 67 -4 136 -14 156 -22 51 -21 78 -61 78 -115 0 -60 -29 -105 -88 -134
-41 -20 -62 -23 -162 -23 -103 0 -119 2 -157 24 -43 25 -73 70 -73 111 0 30
29 76 57 91 l23 13 -26 27 c-37 38 -35 76 6 112 19 16 28 32 23 36 -29 18 -53
78 -53 132 0 123 116 202 249 171 44 -10 47 -10 65 15 22 29 69 52 109 53 25
0 27 -3 27 -40z m2168 3 c-3 -36 -5 -38 -43 -43 -65 -9 -69 -15 -39 -65 35
-61 36 -141 1 -194 -37 -56 -85 -76 -188 -77 -94 -1 -109 -6 -109 -34 0 -29
16 -34 146 -41 142 -7 189 -24 217 -79 24 -47 18 -112 -14 -147 -52 -55 -94
-68 -224 -68 -135 0 -171 12 -205 68 -32 51 -26 103 14 143 l35 35 -25 24
c-13 13 -24 36 -24 50 0 27 40 75 61 75 7 0 3 10 -9 23 -51 55 -64 134 -33
203 33 72 145 118 237 97 41 -10 47 -9 57 9 15 25 82 57 120 58 26 0 28 -2 25
-37z m12330 0 c-3 -36 -5 -38 -43 -43 -65 -9 -69 -15 -40 -64 18 -31 25 -57
25 -95 0 -69 -23 -116 -73 -149 -36 -24 -50 -27 -135 -28 -80 -1 -97 -4 -109
-20 -25 -35 5 -47 135 -55 146 -8 200 -28 226 -84 34 -70 6 -140 -75 -185 -36
-20 -61 -25 -141 -28 -165 -7 -248 38 -248 135 0 38 5 50 34 79 l35 35 -25 24
c-33 33 -31 70 6 106 l30 30 -26 35 c-53 69 -38 187 31 239 45 35 130 52 189
38 42 -9 47 -8 68 15 28 30 73 51 111 52 27 0 28 -2 25 -37z m2160 0 c-3 -35
-6 -38 -41 -44 -56 -9 -60 -18 -32 -73 42 -82 29 -166 -33 -218 -46 -38 -95
-51 -173 -46 -56 4 -71 2 -84 -12 -8 -9 -15 -21 -15 -27 0 -19 60 -33 136 -33
109 0 173 -17 211 -55 28 -28 33 -40 33 -81 0 -108 -71 -156 -238 -162 -95 -4
-106 -2 -158 23 -57 28 -84 65 -84 115 0 32 25 74 54 90 l26 14 -23 25 c-13
14 -27 34 -30 44 -9 24 10 62 38 77 l23 12 -29 46 c-33 53 -40 132 -14 181 36
71 140 113 235 94 42 -9 47 -7 64 15 22 28 70 51 109 52 27 0 28 -2 25 -37z
m-17994 -34 c57 -16 118 -82 140 -153 36 -114 7 -249 -67 -318 -91 -83 -265
-74 -346 19 -49 55 -64 110 -60 215 3 65 10 94 30 133 25 49 83 99 124 108 41
9 141 7 179 -4z m656 -7 c68 -34 75 -60 78 -299 l3 -213 -45 0 -46 0 0 184 c0
245 -8 266 -105 266 -53 0 -77 -10 -122 -53 l-33 -31 0 -183 0 -183 -45 0 -45
0 0 260 0 260 45 0 c45 0 45 0 45 -36 l0 -36 40 32 c22 17 52 35 68 40 48 14
125 11 162 -8z m1330 -3 c53 -23 93 -72 105 -126 l7 -33 -45 0 c-42 0 -45 2
-59 38 -38 96 -191 94 -240 -3 -25 -49 -34 -146 -19 -203 24 -86 95 -130 179
-111 41 9 92 58 92 89 0 17 7 20 45 20 39 0 45 -3 45 -20 0 -62 -66 -137 -139
-159 -123 -36 -247 15 -297 123 -43 91 -30 247 26 326 53 74 198 103 300 59z
m612 -14 c26 -19 55 -52 73 -85 27 -49 30 -64 30 -145 0 -104 -20 -160 -76
-213 -91 -87 -265 -80 -347 13 -47 54 -62 100 -62 197 0 95 22 160 71 209 48
48 83 59 186 56 73 -2 86 -5 125 -32z m2108 13 c33 -17 51 -35 68 -68 21 -41
22 -57 22 -242 l0 -198 -45 0 c-45 0 -45 0 -45 36 l0 35 -35 -27 c-74 -56
-168 -69 -241 -33 -80 38 -107 145 -55 218 31 43 113 71 234 78 l99 6 -5 50
c-6 72 -37 97 -117 97 -48 0 -64 -4 -89 -26 -22 -18 -31 -35 -31 -55 0 -28 -2
-29 -45 -29 -43 0 -45 1 -45 30 0 36 19 77 48 103 56 51 205 63 282 25z m788
-15 l40 -32 6 29 c5 28 9 30 51 30 l45 0 0 -355 0 -355 -50 0 -50 0 0 132 0
132 -21 -23 c-54 -58 -159 -76 -234 -42 -79 36 -114 100 -122 222 -10 134 32
234 114 279 30 16 53 20 110 17 63 -2 76 -6 111 -34z m1252 15 c33 -17 51 -35
68 -68 21 -41 22 -57 22 -242 l0 -198 -45 0 c-45 0 -45 0 -45 35 l0 34 -45
-30 c-78 -53 -158 -63 -231 -30 -78 35 -107 151 -56 220 30 42 118 71 234 78
l100 6 -5 51 c-9 72 -38 96 -117 96 -48 0 -64 -5 -89 -25 -16 -15 -31 -38 -33
-53 -3 -24 -7 -27 -49 -30 l-46 -3 7 38 c18 100 81 142 215 143 54 0 81 -5
115 -22z m834 7 c19 -9 43 -34 57 -58 23 -40 24 -52 27 -249 l4 -208 -45 0
-45 0 -4 194 c-3 179 -5 197 -24 223 -18 24 -29 28 -76 31 -48 3 -61 -1 -104
-30 l-49 -33 -3 -192 -2 -193 -45 0 -45 0 0 260 0 260 45 0 c45 0 45 0 45 -36
l0 -36 33 28 c17 15 46 33 62 40 41 18 130 17 169 -1z m1218 -21 c28 -20 53
-50 73 -88 26 -51 30 -70 30 -140 0 -99 -16 -146 -68 -203 -87 -94 -260 -97
-349 -6 -119 122 -90 376 52 451 40 21 55 23 132 20 78 -4 93 -8 130 -34z
m1396 21 c77 -33 119 -98 129 -200 l6 -65 -187 0 -186 0 0 -33 c0 -50 39 -119
80 -140 72 -37 175 -5 194 62 8 29 12 31 54 31 l45 0 -7 -32 c-16 -82 -89
-137 -190 -145 -83 -7 -139 10 -191 58 -56 52 -79 117 -79 219 1 118 46 203
129 241 50 23 152 25 203 4z m1700 -11 c70 -35 103 -90 110 -185 l5 -69 -187
0 -186 0 0 -27 c1 -38 32 -103 64 -133 23 -21 37 -25 91 -25 57 0 67 3 94 29
17 17 31 40 31 53 0 21 5 23 45 23 42 0 45 -2 45 -25 0 -156 -289 -211 -403
-76 -88 105 -70 348 32 420 45 32 71 40 142 40 51 1 76 -5 117 -25z m2618 7
c49 -23 107 -88 122 -140 20 -64 15 -189 -9 -241 -44 -97 -107 -135 -224 -135
-70 0 -86 4 -128 28 -83 49 -125 150 -114 273 10 110 53 178 132 215 54 25
166 25 221 0z m651 -7 c59 -43 68 -79 71 -301 l4 -203 -49 0 -48 0 0 194 c0
183 -1 196 -21 223 -20 26 -27 28 -87 28 -58 0 -69 -3 -104 -31 l-38 -31 -3
-192 -2 -191 -45 0 -45 0 0 260 0 260 45 0 45 0 0 -37 0 -37 28 27 c44 42 90
58 159 54 43 -2 71 -9 90 -23z m1342 -7 c49 -32 70 -63 78 -111 l6 -36 -47 0
c-40 0 -46 3 -46 21 0 11 -13 33 -28 49 -58 57 -159 49 -209 -17 -25 -32 -28
-47 -32 -120 -5 -132 24 -189 109 -213 71 -21 160 27 160 86 0 22 4 24 49 24
l49 0 -9 -42 c-5 -24 -18 -54 -27 -68 -25 -35 -106 -73 -166 -78 -104 -8 -184
32 -231 118 -27 49 -30 64 -30 145 0 109 20 170 72 216 58 50 88 60 180 56 68
-3 88 -8 122 -30z m556 14 c50 -23 97 -75 120 -135 23 -59 17 -204 -9 -256
-40 -77 -104 -119 -195 -127 -156 -14 -258 78 -269 242 -8 131 41 235 133 276
26 12 64 19 110 19 46 0 84 -7 110 -19z m1833 -19 l40 -32 7 30 c6 28 10 30
51 30 l44 0 0 -355 0 -355 -50 0 -50 0 0 132 0 132 -21 -23 c-76 -82 -229 -78
-301 7 -40 48 -53 97 -53 202 0 101 11 141 52 198 40 53 87 73 170 69 63 -2
76 -6 111 -35z m1252 16 c33 -17 51 -35 68 -68 21 -41 22 -57 22 -242 l0 -198
-45 0 c-45 0 -45 0 -45 36 l0 35 -35 -27 c-74 -56 -168 -69 -241 -33 -80 38
-107 145 -55 218 31 43 113 71 234 78 l99 6 -5 50 c-6 72 -37 97 -118 97 -54
0 -64 -3 -90 -29 -17 -17 -29 -40 -29 -55 0 -24 -3 -26 -45 -26 -41 0 -45 2
-45 25 0 35 23 86 48 108 57 51 205 63 282 25z m1740 -1 c69 -46 75 -68 78
-299 l4 -208 -45 0 -45 0 -4 194 c-3 179 -5 197 -24 223 -18 24 -29 28 -76 31
-48 3 -61 -1 -104 -30 l-49 -33 -3 -192 -2 -193 -45 0 -45 0 0 260 0 260 45 0
c45 0 45 0 45 -36 l0 -36 33 28 c47 39 85 53 148 54 42 0 64 -6 89 -23z m1427
-11 c58 -38 93 -110 93 -188 l0 -58 -186 0 -187 0 7 -42 c19 -118 117 -177
221 -134 36 15 55 42 55 75 0 18 6 21 49 21 l49 0 -7 -33 c-11 -48 -27 -73
-64 -100 -62 -47 -142 -59 -235 -35 -66 16 -126 79 -148 154 -25 86 -16 194
21 263 48 87 97 112 215 108 62 -3 82 -8 117 -31z m-19617 -236 l0 -260 -45 0
-45 0 0 260 0 260 45 0 45 0 0 -260z m2190 98 c1 -189 8 -234 46 -267 24 -20
34 -22 78 -16 57 7 80 18 119 53 l27 26 0 183 0 183 45 0 45 0 0 -260 0 -260
-45 0 c-45 0 -45 0 -45 34 l0 35 -50 -34 c-87 -59 -198 -59 -256 -1 -44 44
-54 103 -54 311 l0 175 45 0 45 0 0 -162z m5520 -98 l0 -260 -50 0 -50 0 0
260 0 260 50 0 50 0 0 -260z m6780 0 l0 -260 -45 0 -45 0 0 260 0 260 45 0 45
0 0 -260z m1105 71 c0 -177 1 -191 21 -218 42 -56 140 -52 209 8 l35 31 0 184
0 184 45 0 45 0 0 -260 0 -260 -45 0 c-45 0 -45 0 -45 34 l0 35 -50 -34 c-90
-60 -207 -57 -262 7 -38 44 -48 105 -48 303 l0 175 48 0 47 0 0 -189z m-6665
-221 c14 -14 20 -33 20 -65 0 -67 -26 -121 -78 -161 -53 -40 -60 -41 -67 -11
-5 18 2 32 29 59 40 40 46 64 18 73 -11 3 -24 16 -30 30 -31 67 56 127 108 75z
m13230 0 c20 -20 26 -65 12 -87 -13 -20 -55 -31 -82 -21 -31 12 -40 25 -40 65
0 56 69 84 110 43z m-14511 -1043 c66 -27 110 -78 118 -136 l6 -41 -44 0 c-43
0 -45 2 -64 43 -25 54 -70 77 -148 77 -71 0 -114 -21 -132 -64 -30 -72 13
-120 139 -156 186 -54 244 -90 265 -165 14 -52 13 -91 -3 -138 -18 -51 -41
-74 -101 -105 -44 -23 -62 -26 -150 -27 -88 0 -107 3 -157 27 -67 31 -108 85
-116 153 l-5 45 52 0 c47 0 51 -2 51 -25 0 -68 56 -114 150 -122 140 -13 228
75 176 176 -17 33 -36 42 -190 92 -173 57 -216 96 -216 201 0 123 82 187 240
187 55 0 90 -6 129 -22z m369 -5 c16 -22 15 -42 -5 -64 -32 -36 -93 -15 -93
32 0 53 64 74 98 32z m262 -218 l0 -35 38 31 c97 78 239 65 286 -26 19 -35 21
-60 24 -246 l3 -208 -45 0 -45 0 -3 194 c-3 179 -5 197 -24 223 -18 23 -29 28
-73 31 -42 2 -61 -2 -97 -23 -24 -14 -48 -34 -54 -45 -6 -11 -10 -96 -10 -199
l0 -181 -45 0 -45 0 0 259 0 260 38 3 c49 4 52 2 52 -38z m838 20 c70 -35 103
-90 110 -185 l5 -69 -188 0 -188 0 7 -47 c7 -51 45 -108 87 -131 14 -8 46 -11
78 -9 46 3 59 9 83 36 15 17 28 40 28 51 0 17 7 20 45 20 43 0 45 -1 45 -29 0
-68 -86 -138 -184 -148 -167 -17 -276 88 -276 267 0 175 81 270 231 270 50 0
77 -6 117 -26z m-1098 -244 l0 -260 -45 0 -45 0 0 260 0 260 45 0 45 0 0 -260z
m-1080 10 l0 -40 -135 0 -135 0 0 40 0 40 135 0 135 0 0 -40z m2900 0 l0 -40
-138 0 -137 0 1 33 c1 17 2 35 3 40 0 4 62 7 136 7 l135 0 0 -40z"/>
<path d="M23090 5302 c-54 -28 -75 -80 -75 -182 0 -137 40 -192 137 -192 52 1
84 16 125 60 21 23 23 34 23 131 0 104 -1 107 -30 143 -47 56 -118 72 -180 40z"/>
<path d="M29565 5306 c-17 -7 -45 -30 -63 -50 -32 -36 -32 -38 -32 -137 0 -86
3 -105 21 -130 28 -39 69 -59 123 -59 98 0 137 48 144 175 4 67 1 90 -16 128
-34 76 -104 105 -177 73z"/>
<path d="M11293 5319 c-76 -22 -100 -128 -44 -191 26 -29 36 -33 78 -33 63 0
99 23 114 75 30 100 -47 178 -148 149z"/>
<path d="M11243 4875 c-61 -26 -69 -101 -15 -129 74 -38 214 -27 252 21 45 58
15 99 -81 113 -86 13 -118 12 -156 -5z"/>
<path d="M26974 5319 c-44 -12 -66 -42 -72 -97 -5 -58 7 -86 51 -112 82 -50
177 5 177 101 0 36 -24 85 -48 98 -27 14 -74 19 -108 10z"/>
<path d="M26924 4875 c-30 -16 -54 -51 -54 -80 0 -26 58 -63 109 -70 67 -9
152 10 180 39 29 31 25 73 -9 97 -37 26 -184 35 -226 14z"/>
<path d="M30403 5319 c-49 -14 -73 -52 -73 -114 0 -43 5 -57 26 -78 49 -49
146 -44 181 10 32 48 18 143 -25 170 -28 17 -74 22 -109 12z"/>
<path d="M30343 4870 c-56 -34 -56 -97 0 -127 43 -24 169 -23 215 1 60 31 64
104 7 126 -13 5 -62 12 -108 14 -70 4 -88 2 -114 -14z"/>
<path d="M8864 5310 c-57 -23 -89 -107 -82 -216 6 -89 32 -135 88 -158 52 -21
75 -20 128 4 58 26 82 78 82 180 0 132 -52 201 -150 199 -25 0 -55 -4 -66 -9z"/>
<path d="M13423 5300 c-57 -34 -68 -62 -68 -175 0 -110 11 -144 58 -179 38
-28 126 -28 164 0 53 40 68 80 68 179 0 103 -16 144 -68 175 -42 26 -112 26
-154 0z"/>
<path d="M14028 5304 c-47 -25 -71 -87 -72 -179 -1 -134 47 -199 148 -199 87
0 138 49 151 145 15 109 -25 214 -89 237 -44 16 -105 14 -138 -4z"/>
<path d="M16347 5096 c-58 -16 -84 -39 -93 -83 -5 -27 -1 -37 24 -63 49 -49
139 -38 205 26 33 32 37 42 37 85 l0 49 -62 -1 c-35 0 -85 -6 -111 -13z"/>
<path d="M18075 5310 c-56 -23 -85 -89 -85 -194 0 -83 24 -145 66 -172 39 -26
125 -25 161 2 59 44 68 67 68 172 0 111 -15 150 -68 182 -33 21 -105 26 -142
10z"/>
<path d="M20050 5313 c-62 -23 -96 -108 -88 -222 9 -117 51 -165 144 -165 57
0 91 17 128 67 15 20 21 47 24 110 5 102 -17 164 -70 197 -32 19 -102 26 -138
13z"/>
<path d="M21905 5095 c-58 -15 -85 -44 -85 -92 0 -97 128 -113 228 -29 29 25
32 33 32 82 l0 54 -62 -1 c-35 0 -85 -6 -113 -14z"/>
<path d="M24532 5300 c-48 -29 -66 -79 -66 -180 -1 -94 15 -135 67 -174 35
-26 122 -28 160 -3 44 29 69 91 70 171 0 87 -14 134 -53 171 -41 39 -128 47
-178 15z"/>
<path d="M28095 5311 c-71 -29 -107 -168 -74 -285 23 -85 110 -126 194 -92 63
25 88 71 93 170 5 101 -17 164 -70 196 -34 21 -105 26 -143 11z"/>
<path d="M28700 5310 c-59 -23 -96 -135 -79 -240 16 -103 57 -144 144 -144 96
0 146 58 152 178 4 86 -19 160 -59 189 -31 23 -119 32 -158 17z"/>
<path d="M31530 5313 c-29 -11 -70 -57 -81 -92 -19 -56 -15 -173 7 -217 28
-56 64 -78 129 -78 62 0 98 20 130 75 16 27 20 51 20 119 -1 103 -24 158 -79
184 -33 15 -95 20 -126 9z"/>
<path d="M32355 5095 c-52 -14 -95 -52 -95 -85 0 -110 163 -120 252 -15 11 13
17 38 18 68 l0 47 -62 -1 c-35 0 -85 -6 -113 -14z"/>
<path d="M33596 5289 c-33 -29 -62 -92 -50 -111 3 -4 66 -8 140 -8 l134 0 0
30 c0 74 -53 120 -139 120 -42 0 -56 -5 -85 -31z"/>
<path d="M35190 5309 c-14 -5 -42 -26 -62 -47 l-38 -36 0 -107 c0 -93 3 -110
21 -133 29 -37 74 -58 127 -58 81 0 131 60 139 166 7 77 -16 162 -51 195 -28
27 -97 37 -136 20z"/>
<path d="M19260 3653 c-49 -26 -72 -72 -78 -157 -5 -88 11 -150 49 -189 28
-28 34 -29 94 -25 60 4 68 7 105 43 l40 39 0 101 c0 91 -2 104 -24 134 -34 46
-58 60 -108 67 -30 4 -53 0 -78 -13z"/>
<path d="M20712 3653 c-18 -9 -44 -31 -58 -48 -22 -29 -24 -41 -24 -142 l0
-111 40 -36 c37 -33 45 -36 99 -36 102 0 145 58 145 195 -1 156 -89 234 -202
178z"/>
<path d="M32360 3663 c-29 -11 -70 -57 -82 -92 -6 -20 -11 -68 -11 -108 1
-122 49 -186 137 -185 53 1 96 21 125 58 18 23 21 40 21 135 0 102 -1 109 -27
140 -41 48 -111 71 -163 52z"/>
<path d="M30892 3650 c-48 -29 -66 -79 -66 -180 -1 -68 3 -92 19 -119 33 -55
69 -76 131 -75 98 0 146 61 147 187 1 87 -14 134 -53 172 -41 39 -128 47 -178
15z"/>
<path d="M10893 3672 c-98 -30 -109 -180 -16 -218 84 -36 163 15 163 105 0 60
-26 96 -78 111 -20 5 -39 9 -42 9 -3 -1 -15 -4 -27 -7z"/>
<path d="M10830 3218 c-47 -32 -54 -85 -15 -116 53 -42 211 -36 256 9 11 11
19 33 19 54 0 46 -29 60 -140 69 -79 7 -88 6 -120 -16z"/>
<path d="M13024 3652 c-31 -25 -44 -55 -44 -102 0 -78 86 -128 165 -96 78 33
87 164 14 202 -38 19 -109 18 -135 -4z"/>
<path d="M12981 3211 c-55 -55 -27 -112 65 -131 108 -23 214 19 214 84 0 47
-32 61 -150 64 -99 3 -110 2 -129 -17z"/>
<path d="M25383 3669 c-76 -22 -100 -128 -44 -191 26 -29 36 -33 78 -33 63 0
99 23 114 75 30 100 -47 178 -148 149z"/>
<path d="M25333 3225 c-61 -26 -69 -101 -15 -129 74 -38 214 -27 252 21 46 59
15 100 -87 114 -92 11 -112 11 -150 -6z"/>
<path d="M27550 3666 c-41 -13 -80 -67 -80 -108 0 -49 25 -85 74 -103 85 -33
156 16 156 106 0 83 -70 131 -150 105z"/>
<path d="M27470 3203 c-31 -40 -24 -82 19 -107 47 -27 173 -28 219 -1 59 35
60 103 1 124 -17 6 -74 11 -125 11 -89 0 -93 -1 -114 -27z"/>
<path d="M9673 3651 c-43 -27 -63 -68 -70 -145 -14 -155 60 -252 175 -231 85
15 124 76 124 191 0 88 -13 132 -52 169 -40 39 -128 46 -177 16z"/>
<path d="M12223 3651 c-51 -32 -67 -73 -68 -176 0 -145 41 -199 152 -198 99 1
142 60 143 196 0 132 -40 188 -138 194 -44 3 -64 0 -89 -16z"/>
<path d="M14377 3446 c-64 -17 -91 -45 -91 -92 0 -77 89 -108 181 -63 61 30
83 61 83 120 l0 49 -62 -1 c-35 0 -85 -6 -111 -13z"/>
<path d="M15172 3653 c-53 -26 -76 -82 -76 -183 -1 -71 3 -92 23 -126 13 -23
34 -48 47 -55 36 -19 109 -14 149 11 59 36 65 52 65 171 0 102 -1 109 -27 140
-48 57 -118 73 -181 42z"/>
<path d="M16417 3446 c-64 -17 -91 -45 -91 -92 0 -96 136 -114 227 -30 33 30
37 39 37 85 l0 51 -62 -1 c-35 0 -85 -6 -111 -13z"/>
<path d="M18434 3660 c-57 -23 -89 -107 -82 -215 8 -119 51 -169 143 -169 107
0 155 60 155 194 0 132 -52 201 -150 199 -25 0 -55 -4 -66 -9z"/>
<path d="M19863 3650 c-34 -20 -63 -66 -63 -100 0 -19 6 -20 113 -22 115 -1
159 1 166 7 2 2 -3 23 -10 47 -26 80 -130 115 -206 68z"/>
<path d="M21547 3652 c-28 -17 -67 -84 -67 -115 0 -15 15 -17 140 -17 l140 0
0 26 c0 43 -29 91 -65 108 -43 21 -113 20 -148 -2z"/>
<path d="M24185 3660 c-56 -23 -86 -85 -87 -180 -1 -125 36 -189 116 -204 119
-22 195 72 183 226 -7 80 -27 122 -70 148 -33 21 -105 26 -142 10z"/>
<path d="M26740 3663 c-29 -11 -70 -57 -81 -92 -19 -56 -15 -173 7 -217 28
-56 64 -78 129 -78 62 0 98 20 130 75 16 27 20 52 20 119 0 104 -22 156 -75
182 -34 17 -98 22 -130 11z"/>
<path d="M28574 3653 c-18 -9 -42 -34 -55 -57 -32 -56 -34 -193 -4 -245 44
-76 126 -96 200 -51 59 36 65 52 65 171 0 102 -1 109 -27 140 -48 56 -118 73
-179 42z"/>
<path d="M29817 3446 c-64 -17 -90 -44 -90 -92 0 -77 88 -108 180 -63 61 30
83 61 83 120 l0 49 -62 -1 c-35 0 -85 -6 -111 -13z"/>
<path d="M32954 3654 c-32 -15 -57 -51 -68 -96 -8 -34 -6 -34 150 -30 l124 3
0 26 c0 34 -27 77 -60 97 -35 20 -105 20 -146 0z"/>
<path d="M22464 2011 c-18 -11 -38 -36 -47 -60 -30 -73 -33 -71 123 -71 l140
0 0 25 c0 41 -31 93 -66 110 -44 21 -112 19 -150 -4z"/>
</g>
</svg>
